<svg width="74" height="56" fill="none" xmlns="http://www.w3.org/2000/svg"><path d="M1.58 35.744v4.352c.087-.162.192-.315.314-.454.135-.155.296-.287.476-.392.206-.118.428-.209.66-.27.276-.074.562-.11.85-.107.405-.004.809.06 1.19.19.351.122.668.32.925.579.275.289.48.631.603 1.004.156.478.23.976.218 1.476a5.355 5.355 0 0 1-.218 1.634c-.119.405-.33.78-.62 1.096-.264.281-.599.494-.972.62a3.897 3.897 0 0 1-1.265.196 2.513 2.513 0 0 1-1.463-.391 2.202 2.202 0 0 1-.796-.914v1.157H0v-9.776h1.58Zm0 6.743c0 .59.164 1.044.49 1.363.175.162.382.287.609.37.226.08.469.117.71.106.644 0 1.111-.164 1.403-.492.291-.327.437-.878.436-1.653a2.795 2.795 0 0 0-.13-.909 1.587 1.587 0 0 0-.368-.61 1.4 1.4 0 0 0-.564-.34 2.419 2.419 0 0 0-.736-.105c-.634 0-1.096.157-1.387.471-.29.312-.452.743-.463 1.29v.51ZM7.364 39.005h1.783l1.865 4.48 1.523-4.48h1.687l-2.714 7.212c-.125.331-.28.653-.462.96-.13.214-.293.41-.484.577a1.373 1.373 0 0 1-.536.29c-.204.052-.415.078-.626.077a2.642 2.642 0 0 1-.626-.078 1.116 1.116 0 0 1-.463-.21v-1.411c.106.1.23.178.367.234.142.06.296.09.452.09a.92.92 0 0 0 .647-.267c.185-.177.341-.487.469-.932l-2.882-6.542ZM24.91 38.746a3.788 3.788 0 0 0-.723-.51 4.014 4.014 0 0 0-.87-.352 3.664 3.664 0 0 0-1-.131c-.67.009-1.155.104-1.449.289a.867.867 0 0 0-.326.314.82.82 0 0 0-.117.429.731.731 0 0 0 .238.578c.18.16.39.285.62.367.283.104.574.19.87.254.327.073.663.154 1.007.24.342.088.678.194 1.007.32.316.12.61.285.872.491.26.207.471.464.618.756.17.35.25.734.238 1.12a2.73 2.73 0 0 1-.217 1.082 2.251 2.251 0 0 1-.681.88 3.448 3.448 0 0 1-1.163.589 5.668 5.668 0 0 1-1.659.215 6.455 6.455 0 0 1-2.177-.373 4.282 4.282 0 0 1-.782-.364 2.297 2.297 0 0 1-.524-.412v-2.009c.151.242.34.462.558.65.235.207.498.383.781.522.314.155.645.274.988.353.383.089.776.133 1.17.13.671 0 1.166-.103 1.482-.312.15-.093.274-.222.357-.374a.966.966 0 0 0 .12-.493.768.768 0 0 0-.096-.415.81.81 0 0 0-.305-.308 3.78 3.78 0 0 0-1.014-.397c-.408-.106-.847-.21-1.313-.315a5.76 5.76 0 0 1-1.313-.456 2.793 2.793 0 0 1-1.014-.828c-.268-.352-.402-.834-.4-1.445 0-.817.316-1.45.95-1.898.635-.448 1.524-.671 2.668-.67a6.563 6.563 0 0 1 1.905.267c.43.122.837.308 1.206.552v2.258a3.158 3.158 0 0 0-.513-.594ZM29.189 35.744v4.352c.085-.162.19-.315.312-.454.136-.154.296-.287.476-.392.206-.118.428-.209.66-.27.276-.075.563-.11.851-.107.405-.004.808.06 1.19.19.35.122.668.32.926.579.274.29.48.632.603 1.004.156.477.23.976.218 1.476a5.353 5.353 0 0 1-.218 1.634c-.12.405-.33.779-.618 1.096-.266.28-.6.494-.973.62a3.906 3.906 0 0 1-1.267.196 2.512 2.512 0 0 1-1.462-.391 2.224 2.224 0 0 1-.796-.914v1.157h-1.483v-9.776h1.58Zm0 6.743c0 .59.163 1.044.488 1.363.175.162.382.287.61.37.226.081.469.117.711.106.643 0 1.11-.164 1.4-.492.291-.327.437-.878.437-1.653a2.792 2.792 0 0 0-.13-.909 1.55 1.55 0 0 0-.368-.61 1.4 1.4 0 0 0-.564-.34 2.409 2.409 0 0 0-.734-.105c-.636 0-1.099.157-1.389.471-.29.312-.445.743-.461 1.29v.51ZM41.513 44.872c-.1.115-.219.213-.353.289a3.34 3.34 0 0 1-.558.254c-.236.082-.48.143-.728.184a5.417 5.417 0 0 1-.864.064c-1.134.008-2.014-.276-2.64-.853-.627-.577-.94-1.432-.938-2.564a3.85 3.85 0 0 1 .252-1.445c.154-.4.398-.764.714-1.064.313-.288.686-.51 1.095-.652a4.252 4.252 0 0 1 1.408-.22c.99.008 1.763.29 2.321.848.558.556.836 1.347.835 2.373v.625h-5.046c.126 1.087.81 1.63 2.053 1.63a3.55 3.55 0 0 0 1.558-.3c.362-.156.67-.407.891-.723v1.554Zm-2.652-4.665a1.953 1.953 0 0 0-1.238.361 1.643 1.643 0 0 0-.585 1.06h3.427a1.391 1.391 0 0 0-.116-.565 1.444 1.444 0 0 0-.336-.476 1.662 1.662 0 0 0-1.152-.38ZM46.791 38.888c.143 0 .286.02.423.059.11.026.216.068.313.126v1.602a1.285 1.285 0 0 0-.47-.315 1.812 1.812 0 0 0-.714-.13c-.862 0-1.27.562-1.224 1.684v3.613h-1.592v-6.522h1.493v1.337c.038-.196.109-.384.21-.557.102-.174.23-.331.382-.467a1.783 1.783 0 0 1 1.18-.43ZM11.179 10H6.447v14.149c0 1.52-.828 2.383-2.543 2.383-1.568 0-3.017-.983-3.904-2.204V29.6c.68.596 2.573 1.4 4.495 1.4 4.495 0 6.684-2.294 6.684-6.464V10ZM26.333 10H21.1l-8.28 20.851h4.731l1.656-4.26h8.872l1.627 4.26h4.998L26.333 10Zm-5.382 12.123 2.72-7 2.692 7h-5.412ZM37.023 14.468h11.09l-11.149 12.51.03 3.873h17.093v-4.468H42.908l11.032-12.51L53.91 10H37.023v4.468ZM56.936 14.468h11.09l-11.15 12.51.03 3.873H74v-4.468H62.821l11.031-12.51-.03-3.873H56.937v4.468Z" fill="#fff" fill-opacity=".96"/></svg>