<svg width="74" height="56" viewBox="0 0 319 110" fill="none" xmlns="http://www.w3.org/2000/svg">
<path d="M0.16 108L20.608 -8.58307e-06H41.632L61.648 108H41.776L39.328 91.152H22.624L20.032 108H0.16ZM25.504 71.712H36.448L29.824 26.208H32.416L25.504 71.712ZM68.5645 108V-8.58307e-06H95.2045C103.365 -8.58307e-06 109.845 2.44799 114.644 7.34399C119.444 12.192 121.845 18.624 121.845 26.64V43.92C121.845 49.008 120.837 53.496 118.821 57.384C116.805 61.272 113.925 64.416 110.181 66.816L108.741 60.48C112.916 61.968 116.132 64.176 118.389 67.104C120.693 70.032 121.845 73.584 121.845 77.76V108H102.405V77.76C102.405 75.6 101.781 73.872 100.533 72.576C99.2845 71.232 97.5085 70.56 95.2045 70.56H88.0045V108H68.5645ZM88.0045 51.12H95.2045C97.5085 51.12 99.2845 50.472 100.533 49.176C101.781 47.832 102.405 46.08 102.405 43.92V26.64C102.405 24.48 101.781 22.752 100.533 21.456C99.2845 20.112 97.5085 19.44 95.2045 19.44H88.0045V51.12ZM142.135 108V19.44H126.295V-8.58307e-06H177.415V19.44H161.575V108H142.135ZM201.675 109.872C196.539 109.872 192.075 108.768 188.283 106.56C184.539 104.304 181.635 101.184 179.571 97.2C177.507 93.216 176.475 88.56 176.475 83.232V53.568C176.475 48.24 177.507 43.584 179.571 39.6C181.635 35.568 184.539 32.448 188.283 30.24C192.075 28.032 196.539 26.928 201.675 26.928C209.403 26.928 215.523 29.376 220.035 34.272C224.595 39.12 226.875 45.552 226.875 53.568V73.008H192.171V56.448H208.875V52.128C208.875 49.968 208.251 48.24 207.003 46.944C205.755 45.6 203.979 44.928 201.675 44.928C199.371 44.928 197.595 45.6 196.347 46.944C195.099 48.24 194.475 49.968 194.475 52.128V84.672C194.475 86.832 195.099 88.584 196.347 89.928C197.595 91.224 199.371 91.872 201.675 91.872C203.979 91.872 205.755 91.224 207.003 89.928C208.251 88.584 208.875 86.832 208.875 84.672V81.792H226.875V83.232C226.875 91.2 224.595 97.632 220.035 102.528C215.523 107.424 209.403 109.872 201.675 109.872ZM193.755 19.008V-8.58307e-06H209.595V19.008H193.755ZM235.456 108V28.8H253.456V40.896L250.288 36.72C251.824 33.6 253.96 31.2 256.696 29.52C259.432 27.792 262.816 26.928 266.848 26.928C270.976 26.928 274.888 28.056 278.584 30.312C282.28 32.568 284.656 36.576 285.712 42.336L280.96 41.184C282.256 36.72 284.392 33.24 287.368 30.744C290.344 28.2 294.304 26.928 299.248 26.928C302.368 26.928 305.368 27.552 308.248 28.8C311.176 30.048 313.576 32.208 315.448 35.28C317.32 38.304 318.256 42.48 318.256 47.808V108H300.256V52.128C300.256 49.968 299.632 48.24 298.384 46.944C297.136 45.6 295.36 44.928 293.056 44.928C290.752 44.928 288.976 45.6 287.728 46.944C286.48 48.24 285.856 49.968 285.856 52.128V108H267.856V52.128C267.856 49.968 267.232 48.24 265.984 46.944C264.736 45.6 262.96 44.928 260.656 44.928C258.352 44.928 256.576 45.6 255.328 46.944C254.08 48.24 253.456 49.968 253.456 52.128V108H235.456Z" fill-opacity="0.8"/>
</svg>

